<svg enable-background="new 0 0 256 256" height="512" viewBox="0 0 256 256" width="512" xmlns="http://www.w3.org/2000/svg"><g id="Layer_36"><g><g><g><path d="m65.647 54.311c.807 0 1.597.068 2.369.188v-1.749c0-.008 0-.017 0-.017.001-1.25 1.167-2.167 2.383-1.912 6.689 1.4 26.584 3.793 40.07-13.167.739-.929 2.107-1.017 2.955-.186 3.106 3.044 11.188 9.124 26.527 9.573 1.047.031 1.885.894 1.906 1.941.004.192.006.385.006.577v4.939c.773-.12 1.563-.188 2.369-.188 4.156 0 7.92 1.652 10.692 4.326v-27.728c0-11.6-9.491-21.092-21.092-21.092-3.935 0-7.613 1.112-10.774 3.007-3.691-6.162-10.418-10.323-18.086-10.323h-10.831c-20.962 0-38.113 17.151-38.113 38.113v17.077c2.638-2.11 5.978-3.379 9.619-3.379z" fill="#5b5d60"/></g></g><g><path d="m138.894 241.671v-98.058c0-2.788.975-5.349 2.595-7.373l-15.571-7.677c-1.692-.834-2.763-2.557-2.763-4.443v-9.594c-5.384 3.079-11.601 4.85-18.215 4.85s-12.831-1.771-18.215-4.85v9.594c0 1.886-1.071 3.609-2.763 4.443l-15.708 7.745-30.706 7.729c-6.622 1.667-11.39 7.446-11.77 14.263l-4.216 89.456c-.079 3.149 2.453 5.744 5.602 5.744h123.554c-6.52-.003-11.824-5.308-11.824-11.829z" fill="#dae6f1"/></g><g><path d="m144.233 54.31c-.807 0-1.596.072-2.369.192v2.5 25.45c0 .833-.038 1.657-.093 2.476.804.129 1.622.215 2.462.215 8.514 0 15.416-6.902 15.416-15.416.001-8.514-6.901-15.417-15.416-15.417z" fill="#f9d0b4"/></g><g><path d="m68.016 82.452v-25.45-2.5c-.773-.12-1.562-.192-2.369-.192-8.514 0-15.416 6.903-15.416 15.416 0 8.515 6.902 15.416 15.416 15.416.84 0 1.659-.086 2.462-.215-.055-.818-.093-1.643-.093-2.475z" fill="#f9d0b4"/></g><g><path d="m110.47 37.654c-13.487 16.959-33.382 14.566-40.071 13.166-1.216-.254-2.382.662-2.383 1.904v.025 29.702c0 20.308 16.616 36.924 36.924 36.924s36.924-16.616 36.924-36.924v-32.891c0-.193-.002-.385-.006-.577-.021-1.047-.859-1.91-1.906-1.941-15.339-.45-23.421-6.529-26.527-9.573-.848-.832-2.216-.745-2.955.185z" fill="#f9d0b4"/></g><g><path d="m138.894 241.671v-98.058c0-2.788.975-5.349 2.595-7.373l-9.554-4.711-20.328 121.971h39.111c-6.52-.003-11.824-5.308-11.824-11.829z" fill="#3a70bf"/></g><g><path d="m77.945 131.529-9.691 4.779-30.706 7.729c-6.622 1.667-11.39 7.446-11.77 14.263l-4.216 89.456c-.079 3.149 2.453 5.744 5.602 5.744h71.11z" fill="#3a70bf"/></g><g><path d="m138.894 143.613c0-2.788.975-5.349 2.595-7.373l-9.554-4.711-20.328 121.971h11.23l16.057-47.472z" fill="#5290db"/></g><g><path d="m77.945 131.529-9.691 4.779-1.313.33-4.164 36.886c-.209 1.847.565 3.669 2.038 4.802l6.925 5.327c2.116 1.628 2.694 4.575 1.348 6.881l-3.43 5.88c-.773 1.326-.935 2.921-.443 4.375l17.828 52.711h11.23z" fill="#5290db"/></g><g><g><path d="m97.395 141.792c.455.479.685 1.093.689 1.708h13.711c.005-.616.234-1.23.689-1.708l12.932-13.522c-1.397-.906-2.262-2.459-2.262-4.15v-9.594c-5.384 3.079-11.601 4.85-18.215 4.85s-12.831-1.771-18.215-4.85v9.594c0 1.691-.865 3.244-2.262 4.15z" fill="#f9d0b4"/></g></g><g><path d="m81.351 151.962 2.842 3.347c.968 1.162 2.737 1.209 3.766.101l9.456-10.183c.901-.971.893-2.475-.02-3.435l-12.932-13.522c-.161.105-.326.206-.501.293l-6.017 2.967z" fill="#dae6f1"/></g><g><path d="m121.922 155.41c1.029 1.108 2.798 1.061 3.766-.101l2.842-3.347 3.405-20.433-6.017-2.967c-.175-.086-.34-.188-.501-.293l-12.932 13.522c-.912.96-.921 2.465-.02 3.435z" fill="#dae6f1"/></g><g><path d="m110.44 161.5 6.959-10.959-4.934-5.314c-.452-.487-.675-1.108-.67-1.727h-13.71c.005.619-.218 1.24-.67 1.727l-4.934 5.314 6.96 10.96h10.999z" fill="#fc657e"/></g><g><path d="m98.274 253.5h13.333l3.873-23.237-5.04-68.763h-11l-5.039 68.763z" fill="#fc657e"/></g><g><path d="m164.113 103.874h-2.07v-2.07c0-1.549-1.256-2.805-2.805-2.805s-2.805 1.256-2.805 2.805v2.07h-2.069c-1.549 0-2.805 1.256-2.805 2.805s1.256 2.805 2.805 2.805h2.069v2.07c0 1.549 1.256 2.805 2.805 2.805s2.805-1.256 2.805-2.805v-2.07h2.07c1.549 0 2.805-1.256 2.805-2.805-.001-1.549-1.256-2.805-2.805-2.805z" fill="#70d6f9"/></g><g><path d="m26.752 131.319c-2.756-.513-4.929-2.642-5.453-5.342-.026-.136-.216-.136-.242 0-.524 2.7-2.696 4.829-5.453 5.342-.138.026-.138.211 0 .237 2.756.513 4.929 2.642 5.453 5.342.026.136.216.136.242 0 .524-2.7 2.696-4.829 5.453-5.342.138-.025.138-.211 0-.237z" fill="#ef4460"/></g><g><path d="m165.752 5.444c-2.756-.513-4.929-2.642-5.453-5.342-.026-.136-.216-.136-.242 0-.524 2.7-2.696 4.829-5.453 5.342-.138.026-.138.211 0 .237 2.756.513 4.929 2.642 5.453 5.342.026.136.216.136.242 0 .524-2.7 2.696-4.829 5.453-5.342.138-.026.138-.212 0-.237z" fill="#f5c84c"/></g><g><circle cx="35.5" cy="110" fill="#f5c84c" r="3"/></g><g><circle cx="172.5" cy="31" fill="#87d147" r="3"/></g><g><circle cx="237.5" cy="119" fill="#ef4460" r="3"/></g><g><path d="m225.612 131.784h-15.734c.786.981 1.259 2.223 1.259 3.578 0 3.164-2.566 5.73-5.73 5.73h-34.478c-3.164 0-5.73-2.566-5.73-5.73 0-1.354.473-2.597 1.259-3.578h-15.734c-6.522 0-11.829 5.307-11.829 11.829v98.058c0 6.522 5.307 11.829 11.829 11.829h74.889c6.522 0 11.829-5.306 11.829-11.829v-98.058c-.002-6.522-5.308-11.829-11.83-11.829z" fill="#af440e"/></g><g><path d="m150.723 141.092c-1.39 0-2.521 1.131-2.521 2.521v98.058c0 1.39 1.131 2.521 2.521 2.521h74.889c1.39 0 2.521-1.131 2.521-2.521v-98.058c0-1.39-1.131-2.521-2.521-2.521z" fill="#dae6f1"/></g><g><circle cx="169.348" cy="218.919" fill="#5290db" r="5.395"/></g><g><circle cx="188.167" cy="218.919" fill="#5290db" r="5.395"/></g><g><circle cx="206.987" cy="218.919" fill="#5290db" r="5.395"/></g><g><g><path d="m205.406 141.092h-34.478c-3.164 0-5.73-2.566-5.73-5.73s2.566-5.73 5.73-5.73h34.478c3.164 0 5.73 2.566 5.73 5.73 0 3.165-2.565 5.73-5.73 5.73z" fill="#f5c84c"/></g></g><g><circle cx="89.694" cy="71.215" r="4.215"/></g><g><circle cx="121.306" cy="71.215" r="4.215"/></g><g><path d="m169.344 226.814c4.354 0 7.896-3.542 7.896-7.896s-3.542-7.895-7.896-7.895-7.896 3.542-7.896 7.895 3.542 7.896 7.896 7.896zm0-10.791c1.597 0 2.896 1.299 2.896 2.895 0 1.597-1.299 2.896-2.896 2.896s-2.896-1.299-2.896-2.896c0-1.596 1.299-2.895 2.896-2.895z"/></g><g><path d="m188.163 226.814c4.354 0 7.896-3.542 7.896-7.896s-3.542-7.895-7.896-7.895-7.895 3.542-7.895 7.895 3.542 7.896 7.895 7.896zm0-10.791c1.597 0 2.896 1.299 2.896 2.895 0 1.597-1.299 2.896-2.896 2.896-1.596 0-2.895-1.299-2.895-2.896.001-1.596 1.299-2.895 2.895-2.895z"/></g><g><path d="m206.983 226.814c4.354 0 7.895-3.542 7.895-7.896s-3.541-7.895-7.895-7.895-7.896 3.542-7.896 7.895 3.543 7.896 7.896 7.896zm0-10.791c1.596 0 2.895 1.299 2.895 2.895 0 1.597-1.299 2.896-2.895 2.896-1.597 0-2.896-1.299-2.896-2.896.001-1.596 1.3-2.895 2.896-2.895z"/></g><g><path d="m163.761 187.525c.488.488 1.128.732 1.768.732s1.279-.244 1.768-.732l2.048-2.048 2.048 2.048c.488.488 1.128.732 1.768.732s1.279-.244 1.768-.732c.977-.976.977-2.559 0-3.536l-2.047-2.047 2.047-2.047c.977-.977.977-2.56 0-3.536-.977-.977-2.559-.976-3.535 0l-2.048 2.048-2.048-2.048c-.977-.976-2.559-.976-3.535 0-.977.976-.977 2.559 0 3.536l2.047 2.047-2.047 2.047c-.979.977-.979 2.56-.002 3.536z"/></g><g><path d="m182.62 177.11c.488.488 1.128.732 1.768.732s1.279-.244 1.768-.732l2.047-2.047 2.047 2.047c.488.488 1.128.732 1.768.732s1.279-.244 1.768-.732c.977-.976.977-2.559 0-3.535l-2.047-2.047 2.047-2.047c.977-.976.977-2.559 0-3.535-.977-.977-2.559-.977-3.535 0l-2.047 2.047-2.047-2.047c-.977-.977-2.559-.977-3.535 0-.977.976-.977 2.559 0 3.535l2.047 2.047-2.047 2.047c-.978.976-.978 2.559-.002 3.535z"/></g><g><path d="m201.4 187.525c.488.488 1.128.732 1.768.732s1.279-.244 1.768-.732l2.047-2.047 2.047 2.047c.488.488 1.128.732 1.768.732s1.279-.244 1.768-.732c.977-.976.977-2.559 0-3.535l-2.047-2.047 2.047-2.047c.977-.976.977-2.559 0-3.535-.977-.977-2.559-.977-3.535 0l-2.047 2.047-2.047-2.047c-.977-.977-2.559-.977-3.535 0-.977.976-.977 2.559 0 3.535l2.047 2.047-2.047 2.047c-.978.976-.978 2.559-.002 3.535z"/></g><g><path d="m203.761 200.498.723-.723v6.219c0 1.381 1.119 2.5 2.5 2.5s2.5-1.119 2.5-2.5v-6.218l.722.722c.977.976 2.559.976 3.535 0 .977-.976.977-2.559 0-3.536-1.094-1.094-3.18-3.179-4.989-4.989-.977-.977-2.559-.976-3.535 0l-4.99 4.989c-.977.977-.977 2.559 0 3.536.975.975 2.557.976 3.534 0z"/></g><g><path d="m166.122 200.497.722-.722v6.219c0 1.381 1.119 2.5 2.5 2.5s2.5-1.119 2.5-2.5v-6.219l.722.722c.976.976 2.558.977 3.535 0s.977-2.56 0-3.536c-.716-.716-3.349-3.353-4.989-4.989-.977-.977-2.559-.977-3.535 0l-4.989 4.989c-.977.976-.977 2.559 0 3.535.976.978 2.558.978 3.534.001z"/></g><g><path d="m82.853 126.32c-.153.075-15.369 7.578-15.47 7.627l-30.449 7.665c-7.725 1.945-13.213 8.595-13.657 16.57l-4.218 89.511c-.116 4.559 3.542 8.307 8.101 8.307h198.447c7.901 0 14.329-6.428 14.329-14.329v-98.058c0-7.901-6.428-14.329-14.329-14.329h-14.675c-1.463-1.332-3.4-2.152-5.53-2.152h-6.168c-1.454-4.791-5.871-8.181-11.071-8.181-5.199 0-9.616 3.39-11.07 8.181h-6.168c-2.13 0-4.067.82-5.53 2.152h-14.676c-3.786 0-7.224 1.487-9.789 3.894l-13.908-6.857c-.002-.001-.003-.002-.004-.003-.727-.359-1.367-1.219-1.367-2.199v-8.145c9.825-6.093 16.779-16.38 18.358-28.342 10.015.136 18.136-7.991 18.136-17.906 0-4.657-1.801-8.891-4.724-12.08v-26.738c0-13.009-10.583-23.592-23.592-23.592-3.434 0-6.833.77-9.957 2.241-4.434-5.947-11.48-9.557-18.904-9.557h-10.83c-22.395 0-40.613 18.219-40.613 40.613v15.955c-3.554 3.276-5.798 7.954-5.798 13.158 0 9.911 8.117 18.042 18.137 17.906 1.578 11.962 8.532 22.248 18.357 28.341v8.146c0 .955-.649 1.846-1.368 2.201zm105.31-2.368c2.391 0 4.491 1.259 5.644 3.181h-11.286c1.152-1.923 3.253-3.181 5.642-3.181zm-17.238 8.18h34.478c1.81 0 3.23 1.507 3.23 3.23 0 1.781-1.449 3.23-3.23 3.23-6.741 0-22.352 0-34.478 0-1.781 0-3.23-1.449-3.23-3.23-.001-1.666 1.372-3.23 3.23-3.23zm30.158 11.474v4.538c0 2.677-2.178 4.855-4.855 4.855h-16.129c-2.677 0-4.854-2.178-4.854-4.855v-4.545zm-30.839-.008v4.547c0 5.434 4.421 9.855 9.854 9.855h16.129c5.435 0 9.855-4.421 9.855-9.855v-4.537l19.546.005-.021 98.079-74.909-.021.016-98.079h.005zm-28.853 62.429v-62.414c0-5.139 4.188-9.329 9.328-9.329h12.047c-.189 1.403-.01 2.905.591 4.308h-12.638c-2.769 0-5.021 2.252-5.021 5.021v98.058c0 2.769 2.252 5.021 5.021 5.021h74.889c2.769 0 5.021-2.252 5.021-5.021v-98.058c0-2.769-2.253-5.021-5.021-5.021h-12.637c.584-1.363.784-2.849.59-4.308h12.047c5.145 0 9.329 4.185 9.329 9.329v98.058c0 5.144-4.185 9.329-9.329 9.329h-74.889c-5.126 0-9.328-4.169-9.328-9.329zm-88.895 44.973v-59.5c0-1.381-1.119-2.5-2.5-2.5s-2.5 1.119-2.5 2.5v59.5h-20.336c-1.795 0-3.144-1.506-3.105-3.126l4.215-89.435c.32-5.757 4.293-10.57 9.885-11.978l25.893-6.518-3.759 33.299c-.306 2.701.844 5.408 2.998 7.065l6.925 5.327c1.116.858 1.423 2.423.713 3.64l-3.43 5.88c-1.138 1.95-1.376 4.295-.652 6.435l16.712 49.411zm36.337 0-17.255-51.012c-.26-.77-.175-1.613.234-2.314l3.43-5.88c1.974-3.382 1.122-7.734-1.982-10.122l-6.925-5.327c-.775-.596-1.188-1.569-1.078-2.54l3.974-35.197c.042-.018.084-.037.125-.058l6.673-3.29 19.289 115.74zm4.597-41.745-8.446-50.675c1.826.423 3.629-.204 4.803-1.468l2.316-2.495 4.779 7.526zm28.501-80.962-11.262 11.776c-.301.317-.64.83-.698.93h-10.069c-.083-.143-.405-.621-.698-.93-.002-.002-.004-.004-.006-.006l-11.257-11.77c.746-1.091 1.279-2.606 1.279-4.174v-5.522c5.006 2.185 10.418 3.278 15.716 3.278 5.291 0 10.703-1.09 15.715-3.277v5.521c0 1.562.521 3.056 1.28 4.174zm-22.688 18.635c.29-.312.625-.827.683-.928h10.021c.078.136.394.617.683.928l3.621 3.9-5.188 8.172h-8.252l-5.189-8.171zm10.242 104.072h-9.098l-3.476-20.853 4.849-66.147h6.354l4.847 66.147zm8.284-96.384 2.317 2.495c1.17 1.26 2.972 1.892 4.803 1.468l-8.446 50.678-3.453-47.115zm22.084 96.384h-13.534l10.072-29.779v20.45c0 3.359 1.262 6.786 3.462 9.329zm-1.962-113.746c-.917 1.834-1.5 4.125-1.5 6.359v62.003l-15.351 45.384h-6.485l19.29-115.74zm-11.968-5.9c.298.147 3.43 1.691 3.237 1.596l-2.986 17.918-2.42 2.845-.004-.004c-.967-1.042 3.504 3.775-9.458-10.189 0-.001 0-.002 0-.004zm31.223-61.627c0 7.079-5.724 12.845-12.786 12.916.033-2.167.001 7.445.001-25.825 7.066.07 12.785 5.861 12.785 12.909zm-104.419 0c0-7.007 5.682-12.839 12.786-12.911 0 34.484-.032 23.687.001 25.826-7.064-.07-12.787-5.836-12.787-12.915zm12.883-17.916c-2.354.004-4.775.468-7.086 1.47v-12.668c.001-19.637 15.976-35.613 35.614-35.613h10.83c6.468 0 12.577 3.49 15.943 9.108.341.569.894.979 1.537 1.141.643.159 1.324.059 1.894-.281 2.893-1.735 6.173-2.652 9.488-2.652 10.252 0 18.592 8.34 18.592 18.592v22.887c-2.469-1.276-5.326-1.964-8.062-1.983v-2.252c0-3.275-2.061-4.95-4.339-5.018-14.712-.431-22.28-6.339-24.851-8.859-1.814-1.781-4.943-1.746-6.662.415-9.306 11.702-23.497 15.223-37.601 12.276-2.425-.508-4.775 1.04-5.297 3.437zm4.903 30.64c0-13.809 0-19.4 0-29.058 15.076 2.904 31.106-.943 41.563-13.752 5.549 5.208 14.623 9.408 27.285 9.882v32.928c0 19.03-15.534 34.388-34.359 34.422-.022 0-.043.002-.065.002s-.043-.002-.065-.002c-18.875-.034-34.359-15.425-34.359-34.422zm25.066 61.075-9.484 10.165-2.396-2.821-2.986-17.92c.698-.344 3.379-1.666 3.236-1.596z"/></g><g><path d="m105.155 101.866c5.578 0 10.87-2.458 14.519-6.746.895-1.051.768-2.629-.284-3.524-1.051-.895-2.628-.768-3.524.284-2.696 3.168-6.601 4.986-10.711 4.986-4.109 0-8.014-1.817-10.71-4.986-.897-1.052-2.475-1.179-3.524-.284-1.052.895-1.179 2.473-.284 3.524 3.647 4.287 8.939 6.746 14.518 6.746z"/></g></g></g></svg>