<svg id="Capa_1" enable-background="new 0 0 512 512" height="512" viewBox="0 0 512 512" width="512" xmlns="http://www.w3.org/2000/svg"><g><path d="m361 151v90.099l-15 30.901h-60v-121z" fill="#a1e6ca"/><path d="m361 151v90.099l-15 30.901h-30v-121z" fill="#65d6a9"/><path d="m421 91v147.4l-15 33.6h-60v-181z" fill="#b3e4ff"/><path d="m421 91v147.4l-15 33.6h-30v-181z" fill="#5dacff"/><path d="m376 302h-96.211l-77.534 77.534 21.211 21.211 68.745-68.745h83.789 105v-30z" fill="#47568c"/><path d="m376 302h105v30h-105z" fill="#3a4673"/><path d="m301 422h30v30h-30z" fill="#b3e4ff"/><path d="m301 482h30v30h-30z" fill="#ff6e83"/><path d="m301 362h30v30h-30z" fill="#a1e6ca"/><g fill="#d5e8fe"><path d="m361 422v30h15 105v-30h-105z"/><path d="m361 482v30h15 105v-30h-105z"/><path d="m376 362h-15v30h15 105v-30z"/></g><g fill="#b5dbff"><path d="m376 422h105v30h-105z"/><path d="m376 482h105v30h-105z"/><path d="m376 362h105v30h-105z"/></g><g><circle cx="136" cy="257" fill="#ffe1ba" r="75"/><path d="m211 257c0-41.353-33.647-75-75-75v150c41.353 0 75-33.647 75-75z" fill="#ffbfab"/><path d="m136 332c-57.891 0-105 47.109-105 105v75h105 105v-75c0-57.891-47.109-105-105-105z" fill="#ff6e83"/><path d="m241 437c0-57.891-47.109-105-105-105v180h105z" fill="#ff3b7f"/></g><path d="m406 0h60v272h-60z" fill="#ff6e83"/><path d="m436 0h30v272h-30z" fill="#ff3b7f"/></g></svg>